<svg xmlns="http://www.w3.org/2000/svg" xmlns:xlink="http://www.w3.org/1999/xlink" width="500" zoomAndPan="magnify" viewBox="0 0 375 374.999991" height="500" preserveAspectRatio="xMidYMid meet" version="1.0"><defs><g/><clipPath id="249d9588ae"><path d="M 112.5 81.847656 L 280 81.847656 L 280 228.847656 L 112.5 228.847656 Z M 112.5 81.847656 " clip-rule="nonzero"/></clipPath></defs><g fill="#ffffff" fill-opacity="1"><g transform="translate(107.803123, 256.863264)"><g><path d="M 4.03125 1.140625 L 0.359375 1.140625 L 6.296875 -15.484375 L 9.515625 -15.484375 L 15.40625 1.140625 L 12.359375 1.140625 L 11.34375 -2.296875 L 5.171875 -2.296875 Z M 6.09375 -4.265625 L 10.359375 -4.265625 L 8.28125 -11.3125 L 8.234375 -11.3125 Z M 6.09375 -4.265625 "/></g></g></g><g fill="#ffffff" fill-opacity="1"><g transform="translate(138.143239, 256.863264)"><g><path d="M 4.625 -1.28125 L 12.203125 -1.28125 L 12.203125 1.15625 L 0.9375 1.15625 L 0.9375 -15.46875 L 4.625 -15.46875 Z M 4.625 -1.28125 "/></g></g></g><g fill="#ffffff" fill-opacity="1"><g transform="translate(165.290706, 256.863264)"><g><path d="M 1 -15.46875 L 7.78125 -15.46875 C 8.84375 -15.46875 9.722656 -15.347656 10.421875 -15.109375 C 11.117188 -14.878906 11.671875 -14.5625 12.078125 -14.15625 C 12.492188 -13.75 12.78125 -13.289062 12.9375 -12.78125 C 13.101562 -12.269531 13.1875 -11.742188 13.1875 -11.203125 C 13.1875 -10.609375 13.109375 -10.109375 12.953125 -9.703125 C 12.804688 -9.304688 12.617188 -8.972656 12.390625 -8.703125 C 12.171875 -8.429688 11.941406 -8.222656 11.703125 -8.078125 C 11.460938 -7.941406 11.25 -7.828125 11.0625 -7.734375 C 12.082031 -7.335938 12.773438 -6.8125 13.140625 -6.15625 C 13.503906 -5.5 13.671875 -4.71875 13.640625 -3.8125 C 13.609375 -2.976562 13.429688 -2.25 13.109375 -1.625 C 12.796875 -1.007812 12.347656 -0.492188 11.765625 -0.078125 C 11.191406 0.328125 10.5 0.628906 9.6875 0.828125 C 8.875 1.035156 7.960938 1.140625 6.953125 1.140625 L 1 1.140625 Z M 4.765625 -8.6875 L 7.890625 -8.6875 C 8.335938 -8.6875 8.753906 -8.734375 9.140625 -8.828125 C 9.523438 -8.929688 9.859375 -9.082031 10.140625 -9.28125 C 10.421875 -9.476562 10.640625 -9.734375 10.796875 -10.046875 C 10.960938 -10.359375 11.046875 -10.71875 11.046875 -11.125 C 11.046875 -11.875 10.757812 -12.4375 10.1875 -12.8125 C 9.613281 -13.1875 8.8125 -13.375 7.78125 -13.375 L 4.765625 -13.375 Z M 4.859375 -1.625 L 8.171875 -1.625 C 8.679688 -1.625 9.125 -1.691406 9.5 -1.828125 C 9.882812 -1.972656 10.203125 -2.164062 10.453125 -2.40625 C 10.710938 -2.65625 10.898438 -2.929688 11.015625 -3.234375 C 11.140625 -3.546875 11.203125 -3.859375 11.203125 -4.171875 C 11.203125 -4.597656 11.125 -4.96875 10.96875 -5.28125 C 10.820312 -5.601562 10.613281 -5.867188 10.34375 -6.078125 C 10.082031 -6.285156 9.78125 -6.441406 9.4375 -6.546875 C 9.09375 -6.648438 8.726562 -6.703125 8.34375 -6.703125 L 4.859375 -6.703125 Z M 4.859375 -1.625 "/></g></g></g><g fill="#ffffff" fill-opacity="1"><g transform="translate(193.943276, 256.863264)"><g><path d="M 12.296875 -12.84375 L 4.75 -12.84375 L 4.75 -8.78125 L 10.96875 -8.78125 L 10.96875 -6.53125 L 4.75 -6.53125 L 4.75 -1.375 L 12.296875 -1.375 L 12.296875 1.125 L 0.984375 1.125 L 0.984375 -15.46875 L 12.296875 -15.46875 Z M 12.296875 -12.84375 "/></g></g></g><g fill="#ffffff" fill-opacity="1"><g transform="translate(221.341586, 256.863264)"><g><path d="M 13.6875 1.140625 L 9.78125 1.140625 C 9.894531 0.941406 9.984375 0.742188 10.046875 0.546875 C 10.117188 0.347656 10.164062 0.132812 10.1875 -0.09375 C 10.207031 -0.332031 10.222656 -0.601562 10.234375 -0.90625 C 10.242188 -1.21875 10.25 -1.582031 10.25 -2 C 10.25 -2.570312 10.210938 -3.066406 10.140625 -3.484375 C 10.066406 -3.898438 9.925781 -4.25 9.71875 -4.53125 C 9.519531 -4.8125 9.226562 -5.019531 8.84375 -5.15625 C 8.46875 -5.289062 7.960938 -5.359375 7.328125 -5.359375 L 4.75 -5.359375 L 4.75 1.140625 L 0.796875 1.140625 L 0.796875 -15.46875 L 8.71875 -15.46875 C 9.8125 -15.46875 10.691406 -15.285156 11.359375 -14.921875 C 12.023438 -14.566406 12.539062 -14.140625 12.90625 -13.640625 C 13.269531 -13.148438 13.507812 -12.640625 13.625 -12.109375 C 13.738281 -11.578125 13.796875 -11.128906 13.796875 -10.765625 C 13.796875 -9.859375 13.59375 -9.046875 13.1875 -8.328125 C 12.789062 -7.609375 12.179688 -7.113281 11.359375 -6.84375 C 11.691406 -6.6875 12.003906 -6.523438 12.296875 -6.359375 C 12.585938 -6.191406 12.832031 -5.957031 13.03125 -5.65625 C 13.238281 -5.363281 13.398438 -4.976562 13.515625 -4.5 C 13.628906 -4.019531 13.6875 -3.394531 13.6875 -2.625 Z M 7.796875 -8.171875 C 8.691406 -8.171875 9.359375 -8.335938 9.796875 -8.671875 C 10.242188 -9.015625 10.46875 -9.597656 10.46875 -10.421875 C 10.46875 -10.640625 10.4375 -10.875 10.375 -11.125 C 10.3125 -11.375 10.191406 -11.609375 10.015625 -11.828125 C 9.847656 -12.046875 9.601562 -12.226562 9.28125 -12.375 C 8.96875 -12.519531 8.554688 -12.59375 8.046875 -12.59375 L 4.75 -12.59375 L 4.75 -8.171875 Z M 7.796875 -8.171875 "/></g></g></g><g fill="#ffffff" fill-opacity="1"><g transform="translate(250.381837, 256.863264)"><g><path d="M 0.9375 -15.46875 L 7.828125 -15.46875 C 8.460938 -15.46875 9.125 -15.390625 9.8125 -15.234375 C 10.5 -15.085938 11.125 -14.8125 11.6875 -14.40625 C 12.257812 -14 12.726562 -13.445312 13.09375 -12.75 C 13.457031 -12.050781 13.632812 -11.15625 13.625 -10.0625 L 13.59375 -4.5625 C 13.59375 -3.5625 13.398438 -2.695312 13.015625 -1.96875 C 12.628906 -1.25 12.140625 -0.660156 11.546875 -0.203125 C 10.953125 0.253906 10.289062 0.59375 9.5625 0.8125 C 8.84375 1.03125 8.132812 1.140625 7.4375 1.140625 L 0.9375 1.140625 Z M 10.71875 -9.21875 C 10.71875 -10.25 10.460938 -11.003906 9.953125 -11.484375 C 9.441406 -11.960938 8.554688 -12.203125 7.296875 -12.203125 L 4.609375 -12.203125 L 4.609375 -2.46875 L 7.5 -2.46875 C 7.914062 -2.46875 8.316406 -2.507812 8.703125 -2.59375 C 9.085938 -2.675781 9.425781 -2.816406 9.71875 -3.015625 C 10.019531 -3.210938 10.257812 -3.476562 10.4375 -3.8125 C 10.625 -4.144531 10.71875 -4.570312 10.71875 -5.09375 Z M 10.71875 -9.21875 "/></g></g></g><g fill="#ffffff" fill-opacity="1"><g transform="translate(279.330867, 256.863264)"><g><path d="M 4.5 1.140625 L 1.15625 1.140625 L 1.15625 -15.46875 L 4.5 -15.46875 Z M 4.5 1.140625 "/></g></g></g><g fill="#ffffff" fill-opacity="1"><g transform="translate(107.105973, 284.047717)"><g><path d="M 6.40625 0 L 0.96875 0 L 0.96875 -9.046875 L 6.40625 -9.046875 L 6.40625 -8.328125 L 1.828125 -8.328125 L 1.828125 -4.890625 L 5.765625 -4.890625 L 5.765625 -4.171875 L 1.828125 -4.171875 L 1.828125 -0.71875 L 6.40625 -0.71875 Z M 6.40625 0 "/></g></g></g><g fill="#ffffff" fill-opacity="1"><g transform="translate(116.191597, 284.047717)"><g><path d="M 6.40625 0 L 1.6875 0.125 C 1.457031 0.132812 1.28125 0.078125 1.15625 -0.046875 C 1.03125 -0.179688 0.96875 -0.359375 0.96875 -0.578125 L 0.96875 -9.046875 L 1.828125 -9.046875 L 1.828125 -0.59375 L 6.40625 -0.71875 Z M 6.40625 0 "/></g></g></g><g fill="#ffffff" fill-opacity="1"><g transform="translate(125.020576, 284.047717)"><g><path d="M 6.40625 0 L 0.96875 0 L 0.96875 -9.046875 L 6.40625 -9.046875 L 6.40625 -8.328125 L 1.828125 -8.328125 L 1.828125 -4.890625 L 5.765625 -4.890625 L 5.765625 -4.171875 L 1.828125 -4.171875 L 1.828125 -0.71875 L 6.40625 -0.71875 Z M 6.40625 0 "/></g></g></g><g fill="#ffffff" fill-opacity="1"><g transform="translate(134.1062, 284.047717)"><g><path d="M 0.84375 -4.53125 C 0.84375 -5.40625 1.003906 -6.191406 1.328125 -6.890625 C 1.660156 -7.585938 2.132812 -8.140625 2.75 -8.546875 C 3.375 -8.960938 4.117188 -9.171875 4.984375 -9.171875 C 6.128906 -9.171875 7.050781 -8.847656 7.75 -8.203125 C 8.445312 -7.554688 8.863281 -6.671875 9 -5.546875 L 8.15625 -5.546875 C 8.050781 -6.460938 7.734375 -7.175781 7.203125 -7.6875 C 6.671875 -8.195312 5.929688 -8.453125 4.984375 -8.453125 C 4.253906 -8.453125 3.640625 -8.28125 3.140625 -7.9375 C 2.648438 -7.59375 2.285156 -7.125 2.046875 -6.53125 C 1.804688 -5.945312 1.6875 -5.28125 1.6875 -4.53125 C 1.6875 -3.78125 1.804688 -3.101562 2.046875 -2.5 C 2.285156 -1.90625 2.648438 -1.4375 3.140625 -1.09375 C 3.640625 -0.757812 4.253906 -0.59375 4.984375 -0.59375 C 5.929688 -0.59375 6.671875 -0.847656 7.203125 -1.359375 C 7.734375 -1.867188 8.050781 -2.582031 8.15625 -3.5 L 9 -3.5 C 8.863281 -2.382812 8.445312 -1.5 7.75 -0.84375 C 7.050781 -0.195312 6.128906 0.125 4.984375 0.125 C 4.117188 0.125 3.375 -0.078125 2.75 -0.484375 C 2.132812 -0.898438 1.660156 -1.457031 1.328125 -2.15625 C 1.003906 -2.851562 0.84375 -3.644531 0.84375 -4.53125 Z M 0.84375 -4.53125 "/></g></g></g><g fill="#ffffff" fill-opacity="1"><g transform="translate(145.925051, 284.047717)"><g><path d="M 0.59375 -9.046875 L 7.78125 -9.046875 L 7.78125 -8.328125 L 4.625 -8.328125 L 4.625 0 L 3.765625 0 L 3.765625 -8.328125 L 0.59375 -8.328125 Z M 0.59375 -9.046875 "/></g></g></g><g fill="#ffffff" fill-opacity="1"><g transform="translate(156.26822, 284.047717)"><g><path d="M 1.828125 0 L 0.96875 0 L 0.96875 -9.046875 L 3.875 -9.046875 C 4.59375 -9.046875 5.207031 -8.972656 5.71875 -8.828125 C 6.226562 -8.691406 6.617188 -8.441406 6.890625 -8.078125 C 7.160156 -7.710938 7.296875 -7.191406 7.296875 -6.515625 C 7.296875 -5.847656 7.15625 -5.34375 6.875 -5 C 6.59375 -4.664062 6.210938 -4.453125 5.734375 -4.359375 L 5.734375 -4.109375 L 6.765625 -4.109375 C 7.003906 -4.109375 7.171875 -4.0625 7.265625 -3.96875 C 7.367188 -3.875 7.421875 -3.71875 7.421875 -3.5 L 7.421875 0 L 6.5625 0 L 6.5625 -3.71875 L 1.828125 -3.71875 Z M 1.828125 -8.328125 L 1.828125 -4.4375 L 3.875 -4.4375 C 4.414062 -4.4375 4.878906 -4.472656 5.265625 -4.546875 C 5.648438 -4.628906 5.941406 -4.804688 6.140625 -5.078125 C 6.347656 -5.359375 6.453125 -5.796875 6.453125 -6.390625 C 6.453125 -6.984375 6.347656 -7.414062 6.140625 -7.6875 C 5.941406 -7.957031 5.648438 -8.128906 5.265625 -8.203125 C 4.878906 -8.285156 4.414062 -8.328125 3.875 -8.328125 Z M 1.828125 -8.328125 "/></g></g></g><g fill="#ffffff" fill-opacity="1"><g transform="translate(166.624219, 284.047717)"><g><path d="M 0.84375 -4.53125 C 0.84375 -5.40625 1.003906 -6.191406 1.328125 -6.890625 C 1.660156 -7.585938 2.132812 -8.140625 2.75 -8.546875 C 3.375 -8.960938 4.117188 -9.171875 4.984375 -9.171875 C 5.859375 -9.171875 6.601562 -8.960938 7.21875 -8.546875 C 7.832031 -8.140625 8.300781 -7.585938 8.625 -6.890625 C 8.957031 -6.191406 9.125 -5.40625 9.125 -4.53125 C 9.125 -3.644531 8.957031 -2.851562 8.625 -2.15625 C 8.300781 -1.457031 7.832031 -0.898438 7.21875 -0.484375 C 6.601562 -0.078125 5.859375 0.125 4.984375 0.125 C 4.117188 0.125 3.375 -0.078125 2.75 -0.484375 C 2.132812 -0.898438 1.660156 -1.457031 1.328125 -2.15625 C 1.003906 -2.851562 0.84375 -3.644531 0.84375 -4.53125 Z M 1.6875 -4.53125 C 1.6875 -3.78125 1.804688 -3.101562 2.046875 -2.5 C 2.285156 -1.90625 2.648438 -1.4375 3.140625 -1.09375 C 3.640625 -0.757812 4.253906 -0.59375 4.984375 -0.59375 C 5.734375 -0.59375 6.347656 -0.757812 6.828125 -1.09375 C 7.316406 -1.4375 7.679688 -1.90625 7.921875 -2.5 C 8.160156 -3.101562 8.28125 -3.78125 8.28125 -4.53125 C 8.28125 -5.28125 8.160156 -5.945312 7.921875 -6.53125 C 7.679688 -7.125 7.316406 -7.59375 6.828125 -7.9375 C 6.347656 -8.28125 5.734375 -8.453125 4.984375 -8.453125 C 4.253906 -8.453125 3.640625 -8.28125 3.140625 -7.9375 C 2.648438 -7.59375 2.285156 -7.125 2.046875 -6.53125 C 1.804688 -5.945312 1.6875 -5.28125 1.6875 -4.53125 Z M 1.6875 -4.53125 "/></g></g></g><g fill="#ffffff" fill-opacity="1"><g transform="translate(178.558563, 284.047717)"><g><path d="M 3.75 -9.046875 C 4.175781 -9.046875 4.601562 -9.007812 5.03125 -8.9375 C 5.457031 -8.875 5.859375 -8.75 6.234375 -8.5625 C 6.617188 -8.382812 6.957031 -8.128906 7.25 -7.796875 C 7.550781 -7.460938 7.785156 -7.03125 7.953125 -6.5 C 8.117188 -5.96875 8.203125 -5.3125 8.203125 -4.53125 C 8.203125 -3.75 8.117188 -3.085938 7.953125 -2.546875 C 7.785156 -2.015625 7.550781 -1.582031 7.25 -1.25 C 6.957031 -0.914062 6.617188 -0.65625 6.234375 -0.46875 C 5.859375 -0.289062 5.457031 -0.164062 5.03125 -0.09375 C 4.601562 -0.03125 4.175781 0 3.75 0 L 0.96875 0 L 0.96875 -9.046875 Z M 1.828125 -0.71875 L 3.75 -0.71875 C 4.070312 -0.71875 4.398438 -0.738281 4.734375 -0.78125 C 5.066406 -0.820312 5.390625 -0.910156 5.703125 -1.046875 C 6.015625 -1.179688 6.296875 -1.390625 6.546875 -1.671875 C 6.796875 -1.953125 6.988281 -2.320312 7.125 -2.78125 C 7.269531 -3.238281 7.34375 -3.820312 7.34375 -4.53125 C 7.34375 -5.226562 7.269531 -5.804688 7.125 -6.265625 C 6.988281 -6.734375 6.796875 -7.101562 6.546875 -7.375 C 6.296875 -7.644531 6.015625 -7.847656 5.703125 -7.984375 C 5.390625 -8.128906 5.066406 -8.222656 4.734375 -8.265625 C 4.398438 -8.304688 4.070312 -8.328125 3.75 -8.328125 L 1.828125 -8.328125 Z M 1.828125 -0.71875 "/></g></g></g><g fill="#ffffff" fill-opacity="1"><g transform="translate(189.568992, 284.047717)"><g><path d="M 0.84375 -4.53125 C 0.84375 -5.40625 1.003906 -6.191406 1.328125 -6.890625 C 1.660156 -7.585938 2.132812 -8.140625 2.75 -8.546875 C 3.375 -8.960938 4.117188 -9.171875 4.984375 -9.171875 C 5.859375 -9.171875 6.601562 -8.960938 7.21875 -8.546875 C 7.832031 -8.140625 8.300781 -7.585938 8.625 -6.890625 C 8.957031 -6.191406 9.125 -5.40625 9.125 -4.53125 C 9.125 -3.644531 8.957031 -2.851562 8.625 -2.15625 C 8.300781 -1.457031 7.832031 -0.898438 7.21875 -0.484375 C 6.601562 -0.078125 5.859375 0.125 4.984375 0.125 C 4.117188 0.125 3.375 -0.078125 2.75 -0.484375 C 2.132812 -0.898438 1.660156 -1.457031 1.328125 -2.15625 C 1.003906 -2.851562 0.84375 -3.644531 0.84375 -4.53125 Z M 1.6875 -4.53125 C 1.6875 -3.78125 1.804688 -3.101562 2.046875 -2.5 C 2.285156 -1.90625 2.648438 -1.4375 3.140625 -1.09375 C 3.640625 -0.757812 4.253906 -0.59375 4.984375 -0.59375 C 5.734375 -0.59375 6.347656 -0.757812 6.828125 -1.09375 C 7.316406 -1.4375 7.679688 -1.90625 7.921875 -2.5 C 8.160156 -3.101562 8.28125 -3.78125 8.28125 -4.53125 C 8.28125 -5.28125 8.160156 -5.945312 7.921875 -6.53125 C 7.679688 -7.125 7.316406 -7.59375 6.828125 -7.9375 C 6.347656 -8.28125 5.734375 -8.453125 4.984375 -8.453125 C 4.253906 -8.453125 3.640625 -8.28125 3.140625 -7.9375 C 2.648438 -7.59375 2.285156 -7.125 2.046875 -6.53125 C 1.804688 -5.945312 1.6875 -5.28125 1.6875 -4.53125 Z M 1.6875 -4.53125 "/></g></g></g><g fill="#ffffff" fill-opacity="1"><g transform="translate(201.503336, 284.047717)"><g><path d="M 1.828125 0 L 0.96875 0 L 0.96875 -9.046875 L 2.6875 -9.046875 L 5.515625 -0.25 L 5.765625 -0.25 L 8.59375 -9.046875 L 10.3125 -9.046875 L 10.3125 0 L 9.46875 0 L 9.46875 -8.140625 L 9.59375 -8.78125 L 9.34375 -8.78125 L 6.515625 0 L 4.765625 0 L 1.953125 -8.78125 L 1.6875 -8.78125 L 1.828125 -8.140625 Z M 1.828125 0 "/></g></g></g><g fill="#ffffff" fill-opacity="1"><g transform="translate(214.759381, 284.047717)"><g><path d="M 1.921875 -10.15625 L 1.75 -10.859375 L 5.46875 -11.859375 L 5.640625 -11.15625 Z M 6.40625 0 L 0.96875 0 L 0.96875 -9.046875 L 6.40625 -9.046875 L 6.40625 -8.328125 L 1.828125 -8.328125 L 1.828125 -4.890625 L 5.765625 -4.890625 L 5.765625 -4.171875 L 1.828125 -4.171875 L 1.828125 -0.71875 L 6.40625 -0.71875 Z M 6.40625 0 "/></g></g></g><g fill="#ffffff" fill-opacity="1"><g transform="translate(223.845006, 284.047717)"><g><path d="M 7.984375 -2.25 C 7.984375 -1.8125 7.882812 -1.410156 7.6875 -1.046875 C 7.5 -0.691406 7.15625 -0.40625 6.65625 -0.1875 C 6.164062 0.0195312 5.476562 0.125 4.59375 0.125 C 3.550781 0.125 2.738281 -0.0195312 2.15625 -0.3125 C 1.570312 -0.601562 1.164062 -1.007812 0.9375 -1.53125 C 0.707031 -2.0625 0.59375 -2.671875 0.59375 -3.359375 L 1.4375 -3.359375 C 1.4375 -2.597656 1.5625 -2.019531 1.8125 -1.625 C 2.070312 -1.226562 2.4375 -0.957031 2.90625 -0.8125 C 3.382812 -0.664062 3.945312 -0.59375 4.59375 -0.59375 C 5.375 -0.59375 5.992188 -0.707031 6.453125 -0.9375 C 6.910156 -1.164062 7.140625 -1.582031 7.140625 -2.1875 C 7.140625 -2.5625 7.046875 -2.867188 6.859375 -3.109375 C 6.671875 -3.347656 6.421875 -3.539062 6.109375 -3.6875 C 5.804688 -3.84375 5.46875 -3.972656 5.09375 -4.078125 C 4.726562 -4.191406 4.359375 -4.300781 3.984375 -4.40625 C 3.398438 -4.570312 2.878906 -4.753906 2.421875 -4.953125 C 1.972656 -5.148438 1.625 -5.40625 1.375 -5.71875 C 1.125 -6.03125 1 -6.445312 1 -6.96875 C 1 -7.644531 1.242188 -8.179688 1.734375 -8.578125 C 2.222656 -8.972656 3.019531 -9.171875 4.125 -9.171875 C 4.789062 -9.171875 5.347656 -9.078125 5.796875 -8.890625 C 6.242188 -8.710938 6.601562 -8.46875 6.875 -8.15625 C 7.144531 -7.851562 7.335938 -7.519531 7.453125 -7.15625 C 7.566406 -6.800781 7.625 -6.445312 7.625 -6.09375 L 6.765625 -6.09375 C 6.765625 -6.632812 6.644531 -7.078125 6.40625 -7.421875 C 6.175781 -7.773438 5.859375 -8.035156 5.453125 -8.203125 C 5.046875 -8.367188 4.601562 -8.453125 4.125 -8.453125 C 3.6875 -8.453125 3.296875 -8.410156 2.953125 -8.328125 C 2.609375 -8.242188 2.335938 -8.09375 2.140625 -7.875 C 1.941406 -7.664062 1.84375 -7.378906 1.84375 -7.015625 C 1.84375 -6.660156 1.9375 -6.367188 2.125 -6.140625 C 2.320312 -5.921875 2.597656 -5.734375 2.953125 -5.578125 C 3.316406 -5.421875 3.75 -5.269531 4.25 -5.125 C 4.695312 -4.976562 5.140625 -4.832031 5.578125 -4.6875 C 6.023438 -4.550781 6.429688 -4.378906 6.796875 -4.171875 C 7.160156 -3.972656 7.445312 -3.71875 7.65625 -3.40625 C 7.875 -3.101562 7.984375 -2.71875 7.984375 -2.25 Z M 7.984375 -2.25 "/></g></g></g><g fill="#ffffff" fill-opacity="1"><g transform="translate(234.393482, 284.047717)"><g><path d="M 0.59375 -9.046875 L 7.78125 -9.046875 L 7.78125 -8.328125 L 4.625 -8.328125 L 4.625 0 L 3.765625 0 L 3.765625 -8.328125 L 0.59375 -8.328125 Z M 0.59375 -9.046875 "/></g></g></g><g fill="#ffffff" fill-opacity="1"><g transform="translate(244.736652, 284.047717)"><g><path d="M 5.71875 -9.046875 L 5.71875 -8.328125 L 3.703125 -8.328125 L 3.703125 -0.71875 L 5.71875 -0.71875 L 5.71875 0 L 0.84375 0 L 0.84375 -0.71875 L 2.859375 -0.71875 L 2.859375 -8.328125 L 0.84375 -8.328125 L 0.84375 -9.046875 Z M 5.71875 -9.046875 "/></g></g></g><g fill="#ffffff" fill-opacity="1"><g transform="translate(253.270499, 284.047717)"><g><path d="M 0.84375 -4.53125 C 0.84375 -5.40625 1.003906 -6.191406 1.328125 -6.890625 C 1.660156 -7.585938 2.132812 -8.140625 2.75 -8.546875 C 3.375 -8.960938 4.117188 -9.171875 4.984375 -9.171875 C 6.128906 -9.171875 7.050781 -8.847656 7.75 -8.203125 C 8.445312 -7.554688 8.863281 -6.671875 9 -5.546875 L 8.15625 -5.546875 C 8.050781 -6.460938 7.734375 -7.175781 7.203125 -7.6875 C 6.671875 -8.195312 5.929688 -8.453125 4.984375 -8.453125 C 4.253906 -8.453125 3.640625 -8.28125 3.140625 -7.9375 C 2.648438 -7.59375 2.285156 -7.125 2.046875 -6.53125 C 1.804688 -5.945312 1.6875 -5.28125 1.6875 -4.53125 C 1.6875 -3.78125 1.804688 -3.101562 2.046875 -2.5 C 2.285156 -1.90625 2.648438 -1.4375 3.140625 -1.09375 C 3.640625 -0.757812 4.253906 -0.59375 4.984375 -0.59375 C 5.929688 -0.59375 6.671875 -0.847656 7.203125 -1.359375 C 7.734375 -1.867188 8.050781 -2.582031 8.15625 -3.5 L 9 -3.5 C 8.863281 -2.382812 8.445312 -1.5 7.75 -0.84375 C 7.050781 -0.195312 6.128906 0.125 4.984375 0.125 C 4.117188 0.125 3.375 -0.078125 2.75 -0.484375 C 2.132812 -0.898438 1.660156 -1.457031 1.328125 -2.15625 C 1.003906 -2.851562 0.84375 -3.644531 0.84375 -4.53125 Z M 0.84375 -4.53125 "/></g></g></g><g fill="#ffffff" fill-opacity="1"><g transform="translate(265.089349, 284.047717)"><g><path d="M 0.84375 -4.53125 C 0.84375 -5.40625 1.003906 -6.191406 1.328125 -6.890625 C 1.660156 -7.585938 2.132812 -8.140625 2.75 -8.546875 C 3.375 -8.960938 4.117188 -9.171875 4.984375 -9.171875 C 5.859375 -9.171875 6.601562 -8.960938 7.21875 -8.546875 C 7.832031 -8.140625 8.300781 -7.585938 8.625 -6.890625 C 8.957031 -6.191406 9.125 -5.40625 9.125 -4.53125 C 9.125 -3.644531 8.957031 -2.851562 8.625 -2.15625 C 8.300781 -1.457031 7.832031 -0.898438 7.21875 -0.484375 C 6.601562 -0.078125 5.859375 0.125 4.984375 0.125 C 4.117188 0.125 3.375 -0.078125 2.75 -0.484375 C 2.132812 -0.898438 1.660156 -1.457031 1.328125 -2.15625 C 1.003906 -2.851562 0.84375 -3.644531 0.84375 -4.53125 Z M 1.6875 -4.53125 C 1.6875 -3.78125 1.804688 -3.101562 2.046875 -2.5 C 2.285156 -1.90625 2.648438 -1.4375 3.140625 -1.09375 C 3.640625 -0.757812 4.253906 -0.59375 4.984375 -0.59375 C 5.734375 -0.59375 6.347656 -0.757812 6.828125 -1.09375 C 7.316406 -1.4375 7.679688 -1.90625 7.921875 -2.5 C 8.160156 -3.101562 8.28125 -3.78125 8.28125 -4.53125 C 8.28125 -5.28125 8.160156 -5.945312 7.921875 -6.53125 C 7.679688 -7.125 7.316406 -7.59375 6.828125 -7.9375 C 6.347656 -8.28125 5.734375 -8.453125 4.984375 -8.453125 C 4.253906 -8.453125 3.640625 -8.28125 3.140625 -7.9375 C 2.648438 -7.59375 2.285156 -7.125 2.046875 -6.53125 C 1.804688 -5.945312 1.6875 -5.28125 1.6875 -4.53125 Z M 1.6875 -4.53125 "/></g></g></g><g fill="#ffffff" fill-opacity="1"><g transform="translate(277.023694, 284.047717)"><g><path d="M 7.984375 -2.25 C 7.984375 -1.8125 7.882812 -1.410156 7.6875 -1.046875 C 7.5 -0.691406 7.15625 -0.40625 6.65625 -0.1875 C 6.164062 0.0195312 5.476562 0.125 4.59375 0.125 C 3.550781 0.125 2.738281 -0.0195312 2.15625 -0.3125 C 1.570312 -0.601562 1.164062 -1.007812 0.9375 -1.53125 C 0.707031 -2.0625 0.59375 -2.671875 0.59375 -3.359375 L 1.4375 -3.359375 C 1.4375 -2.597656 1.5625 -2.019531 1.8125 -1.625 C 2.070312 -1.226562 2.4375 -0.957031 2.90625 -0.8125 C 3.382812 -0.664062 3.945312 -0.59375 4.59375 -0.59375 C 5.375 -0.59375 5.992188 -0.707031 6.453125 -0.9375 C 6.910156 -1.164062 7.140625 -1.582031 7.140625 -2.1875 C 7.140625 -2.5625 7.046875 -2.867188 6.859375 -3.109375 C 6.671875 -3.347656 6.421875 -3.539062 6.109375 -3.6875 C 5.804688 -3.84375 5.46875 -3.972656 5.09375 -4.078125 C 4.726562 -4.191406 4.359375 -4.300781 3.984375 -4.40625 C 3.398438 -4.570312 2.878906 -4.753906 2.421875 -4.953125 C 1.972656 -5.148438 1.625 -5.40625 1.375 -5.71875 C 1.125 -6.03125 1 -6.445312 1 -6.96875 C 1 -7.644531 1.242188 -8.179688 1.734375 -8.578125 C 2.222656 -8.972656 3.019531 -9.171875 4.125 -9.171875 C 4.789062 -9.171875 5.347656 -9.078125 5.796875 -8.890625 C 6.242188 -8.710938 6.601562 -8.46875 6.875 -8.15625 C 7.144531 -7.851562 7.335938 -7.519531 7.453125 -7.15625 C 7.566406 -6.800781 7.625 -6.445312 7.625 -6.09375 L 6.765625 -6.09375 C 6.765625 -6.632812 6.644531 -7.078125 6.40625 -7.421875 C 6.175781 -7.773438 5.859375 -8.035156 5.453125 -8.203125 C 5.046875 -8.367188 4.601562 -8.453125 4.125 -8.453125 C 3.6875 -8.453125 3.296875 -8.410156 2.953125 -8.328125 C 2.609375 -8.242188 2.335938 -8.09375 2.140625 -7.875 C 1.941406 -7.664062 1.84375 -7.378906 1.84375 -7.015625 C 1.84375 -6.660156 1.9375 -6.367188 2.125 -6.140625 C 2.320312 -5.921875 2.597656 -5.734375 2.953125 -5.578125 C 3.316406 -5.421875 3.75 -5.269531 4.25 -5.125 C 4.695312 -4.976562 5.140625 -4.832031 5.578125 -4.6875 C 6.023438 -4.550781 6.429688 -4.378906 6.796875 -4.171875 C 7.160156 -3.972656 7.445312 -3.71875 7.65625 -3.40625 C 7.875 -3.101562 7.984375 -2.71875 7.984375 -2.25 Z M 7.984375 -2.25 "/></g></g></g><g clip-path="url(#249d9588ae)"><path fill="#ffffff" d="M 204.425781 181.464844 L 204.425781 194.75 C 204.425781 195.765625 203.917969 196.710938 203.070312 197.265625 C 196.347656 201.648438 188.222656 203.835938 178.703125 203.835938 C 178.464844 203.835938 178.222656 203.832031 177.984375 203.828125 C 172.703125 203.75 167.890625 202.773438 163.535156 200.90625 C 159.996094 199.382812 156.816406 197.382812 153.992188 194.886719 C 153.183594 194.183594 152.402344 193.429688 151.648438 192.636719 C 148.277344 189.082031 145.675781 184.902344 143.84375 180.101562 C 142.007812 175.296875 141.09375 170.054688 141.09375 164.363281 L 141.09375 164.007812 C 141.09375 158.675781 142.007812 153.667969 143.84375 148.984375 C 145.675781 144.304688 148.21875 140.214844 151.472656 136.714844 C 154.722656 133.21875 158.507812 130.429688 162.828125 128.359375 C 167.140625 126.285156 171.785156 125.246094 176.753906 125.246094 C 179.121094 125.246094 181.351562 125.375 183.457031 125.644531 C 183.519531 125.652344 183.578125 125.660156 183.640625 125.671875 L 183.621094 125.71875 L 180.941406 132.011719 L 175.988281 143.652344 C 175.546875 144.691406 176.308594 145.839844 177.4375 145.839844 L 200.703125 145.839844 C 201.34375 145.839844 201.917969 145.457031 202.160156 144.867188 L 203.480469 141.644531 L 206.089844 135.269531 L 212.148438 120.480469 C 213.542969 118.941406 216.265625 119.238281 217.136719 121.375 C 217.253906 121.65625 217.402344 121.90625 217.578125 122.125 L 219.195312 126.074219 L 221.914062 132.710938 L 228.359375 148.433594 L 230.140625 152.78125 C 230.5625 153.8125 229.800781 154.949219 228.683594 154.949219 L 228.523438 154.949219 C 228.3125 154.898438 228.089844 154.871094 227.863281 154.871094 L 179.929688 154.871094 C 179.703125 154.871094 179.484375 154.898438 179.273438 154.945312 L 172.222656 154.945312 C 171.59375 154.945312 171.023438 155.320312 170.777344 155.902344 L 170.34375 156.925781 L 157.515625 187.066406 C 157.078125 188.097656 157.339844 189.304688 158.183594 190.042969 L 158.199219 190.054688 L 158.230469 190.082031 C 160.511719 192.097656 163.136719 193.75 166.035156 194.996094 C 169.582031 196.519531 173.609375 197.328125 178.003906 197.390625 C 178.210938 197.394531 178.421875 197.398438 178.628906 197.398438 L 178.652344 197.398438 C 179.957031 197.398438 181.125 196.601562 181.617188 195.394531 L 185.832031 185.054688 L 187.871094 180.054688 C 188.113281 179.460938 188.691406 179.074219 189.328125 179.074219 L 203.234375 179.074219 C 203.957031 179.621094 204.425781 180.488281 204.425781 181.464844 Z M 279.769531 204.738281 L 227.886719 82.8125 C 227.640625 82.230469 227.070312 81.855469 226.4375 81.855469 L 203.328125 81.855469 C 202.695312 81.855469 202.125 82.230469 201.878906 82.8125 L 196.539062 95.363281 L 193.964844 101.410156 C 193.902344 101.398438 193.84375 101.386719 193.785156 101.375 C 193.460938 101.320312 193.132812 101.261719 192.808594 101.207031 C 188.253906 100.441406 183.195312 100.050781 177.640625 100.050781 C 168.175781 100.050781 159.484375 101.738281 151.5625 105.109375 C 143.632812 108.480469 136.777344 113.09375 130.980469 118.945312 C 125.183594 124.800781 120.660156 131.605469 117.410156 139.347656 C 114.15625 147.097656 112.53125 155.40625 112.53125 164.273438 L 112.53125 164.628906 C 112.53125 173.855469 114.128906 182.371094 117.320312 190.175781 C 120.515625 197.980469 124.980469 204.722656 130.714844 210.398438 C 136.449219 216.078125 143.3125 220.511719 151.296875 223.707031 C 159.277344 226.898438 168.117188 228.496094 177.816406 228.496094 C 189.171875 228.496094 199.25 226.574219 208.066406 222.730469 C 216.378906 219.109375 223.613281 214.769531 229.769531 209.71875 C 230.460938 209.148438 230.863281 208.296875 230.863281 207.398438 L 230.863281 179.074219 L 239.726562 179.074219 C 240.367188 179.074219 240.941406 179.460938 241.183594 180.054688 L 251.742188 205.949219 C 251.980469 206.539062 252.558594 206.925781 253.195312 206.925781 L 278.324219 206.925781 C 279.449219 206.925781 280.210938 205.777344 279.769531 204.738281 " fill-opacity="1" fill-rule="nonzero"/></g></svg>